# xmcd
#
# Track frame offsets:
#	151
#	12711
#	34067
#	50577
#	71563
#
# Disc length: 1185 seconds
#
# Revision: 1
# Processed by: cddbd v1.5.2PL0 Copyright (c) Steve Scherf et al.
# Submitted via: audiograbber 1.83.01
#
DISCID=42049f05
DTITLE=Transkaakko - Muki
DYEAR=1997
DGENRE=Folk
TTITLE0=Vire
TTITLE1=Mauri
TTITLE2=Paine
TTITLE3=Tuntematon
TTITLE4=Neljä Varjotonta
EXTD=TR.
EXTT0=
EXTT1=
EXTT2=
EXTT3=
EXTT4=
PLAYORDER=
